<mxfile host="app.diagrams.net" modified="2024-07-04T05:48:11.599Z" agent="Mozilla/5.0 (Windows NT 10.0; Win64; x64) AppleWebKit/537.36 (KHTML, like Gecko) Chrome/126.0.0.0 Safari/537.36" etag="MQMLAudMMXlpV7Pq-f2X" version="24.5.4" type="github">
  <diagram name="Page-1" id="ukoN5H4fn96m-dexxANL">
    <mxGraphModel dx="1533" dy="609" grid="1" gridSize="10" guides="1" tooltips="1" connect="1" arrows="1" fold="1" page="1" pageScale="1" pageWidth="850" pageHeight="1100" math="0" shadow="0">
      <root>
        <mxCell id="0" />
        <mxCell id="1" parent="0" />
        <mxCell id="vJdnkZP15XW9eH7DNpHB-1" value="Administrateur" style="shape=umlActor;verticalLabelPosition=bottom;verticalAlign=top;html=1;" vertex="1" parent="1">
          <mxGeometry x="60" y="190" width="30" height="60" as="geometry" />
        </mxCell>
        <mxCell id="vJdnkZP15XW9eH7DNpHB-5" value="Professeur" style="shape=umlActor;verticalLabelPosition=bottom;verticalAlign=top;html=1;" vertex="1" parent="1">
          <mxGeometry x="60" y="550" width="30" height="60" as="geometry" />
        </mxCell>
        <mxCell id="vJdnkZP15XW9eH7DNpHB-6" value="Etudiant" style="shape=umlActor;verticalLabelPosition=bottom;verticalAlign=top;html=1;" vertex="1" parent="1">
          <mxGeometry x="60" y="790" width="30" height="60" as="geometry" />
        </mxCell>
        <mxCell id="vJdnkZP15XW9eH7DNpHB-12" value="Gestion des Ã©tudiants" style="ellipse;" vertex="1" parent="1">
          <mxGeometry x="290" y="40" width="160" height="60" as="geometry" />
        </mxCell>
      </root>
    </mxGraphModel>
  </diagram>
</mxfile>
